<svg width="24" height="24" xmlns="http://www.w3.org/2000/svg" fill-rule="evenodd" clip-rule="evenodd"><path fill="#ffffff" d="M10.5 24h-7A2.5 2.5 0 011 21.5V9.86a2.368 2.368 0 01-.711-3.07 262.16 262.16 0 013.265-5.654A2.366 2.366 0 015.599 0c.635 0 .972.204 1.445.479.662.386 9 5.352 12.512 7.441.087.052 3.366 1.988 3.449 2.045.663.49.995 1.197.995 1.934 0 .375-.092.745-.295 1.13a255.783 255.783 0 01-3.265 5.655c-.577.92-1.615 1.29-2.496 1.088-.392.234-5.826 3.75-6.252 3.968-.413.212-.762.26-1.192.26M3 13.237V21.5a.5.5 0 00.5.5h4.588A595.88 595.88 0 013 13.237m1.606-1.238c.053.092 5.681 9.797 5.726 9.859a.36.36 0 00.455.098c.164-.092 5.081-3.251 5.081-3.251-.639-.377-8.144-4.851-11.262-6.706m.659-9.829C4.352 3.626 2.066 7.695 2.03 7.78a.377.377 0 00.149.464c.201.12 16.023 9.547 16.177 9.571a.376.376 0 00.377-.174c.942-1.584 3.206-5.55 3.232-5.601a.38.38 0 00-.15-.465c-.201-.12-15.983-9.499-16.09-9.546a.375.375 0 00-.46.141m1.557 2.695a2 2 0 11-.001 3.999 2 2 0 01.001-3.999"/></svg>